<svg xmlns="http://www.w3.org/2000/svg" xmlns:xlink="http://www.w3.org/1999/xlink" width="2000" zoomAndPan="magnify" viewBox="0 0 1500 1499.999933" height="2000" preserveAspectRatio="xMidYMid meet" version="1.0"><defs><g/><clipPath id="07cfa3ba80"><path d="M 223.464844 527.734375 L 585.714844 527.734375 L 585.714844 889.984375 L 223.464844 889.984375 Z M 223.464844 527.734375 " clip-rule="nonzero"/></clipPath><clipPath id="1da721b3d5"><path d="M 339.925781 634.449219 L 469.855469 634.449219 L 469.855469 783.832031 L 339.925781 783.832031 Z M 339.925781 634.449219 " clip-rule="nonzero"/></clipPath><clipPath id="b83085fdee"><path d="M 384.4375 635.496094 L 380.621094 636.15625 C 377.929688 636.625 372.332031 638.023438 369.84375 638.851562 L 367.253906 639.714844 C 366 640.128906 363.507812 641.199219 362.417969 641.789062 L 358.9375 643.667969 C 357.207031 644.605469 354.128906 646.757812 352.808594 647.953125 L 350.96875 649.621094 C 350.113281 650.398438 348.386719 652.277344 347.742188 653.140625 L 346.710938 654.511719 C 346.21875 655.164062 345.363281 656.65625 345.074219 657.363281 L 343.648438 660.832031 C 342.960938 662.511719 342.089844 666.160156 341.957031 667.898438 L 341.804688 669.925781 C 341.730469 670.917969 341.933594 672.980469 342.199219 673.960938 L 343.078125 677.167969 C 343.515625 678.78125 345.007812 681.84375 346.070312 683.320312 L 349.039062 687.457031 C 349.632812 688.277344 351.183594 689.984375 352.007812 690.710938 L 352.871094 691.476562 C 353.273438 691.835938 354.292969 692.597656 354.777344 692.902344 L 360.726562 696.664062 C 362.835938 697.996094 368 700.738281 370.417969 701.8125 L 373.007812 702.960938 C 374.128906 703.457031 377.140625 704.675781 378.320312 705.109375 L 422.222656 721.222656 C 423.757812 721.789062 427.390625 723.324219 428.8125 724.011719 L 430.394531 724.777344 C 431.121094 725.128906 432.71875 726.039062 433.359375 726.460938 L 435.542969 727.914062 C 436.570312 728.597656 438.660156 730.265625 439.488281 731.058594 L 441.195312 732.703125 C 442.054688 733.527344 443.402344 735.285156 443.90625 736.230469 L 445.132812 738.539062 C 445.777344 739.757812 446.359375 742.011719 446.359375 743.300781 L 446.359375 752.210938 C 446.359375 753.472656 445.808594 755.730469 445.207031 756.925781 L 444.632812 758.074219 C 444.363281 758.613281 443.59375 759.789062 443.183594 760.285156 L 441.894531 761.859375 C 441.253906 762.640625 439.679688 764.09375 438.765625 764.742188 L 435.660156 766.960938 C 434.046875 768.105469 430.632812 769.882812 428.570312 770.644531 L 425.382812 771.824219 C 423.828125 772.398438 420.402344 773.34375 418.691406 773.667969 L 416.414062 774.101562 C 415.265625 774.320312 412.972656 774.53125 411.773438 774.53125 L 396.054688 774.53125 C 394.691406 774.53125 393.332031 774.40625 391.992188 774.148438 L 389.976562 773.765625 C 388.078125 773.40625 383.972656 772.34375 382.203125 771.753906 L 380.050781 771.039062 C 379.039062 770.703125 376.875 769.8125 375.96875 769.359375 L 374.632812 768.695312 C 374.023438 768.390625 372.648438 767.597656 372.113281 767.238281 L 367.058594 763.875 C 365.074219 762.558594 361.296875 759.449219 359.773438 757.882812 L 358.191406 756.257812 C 357.472656 755.515625 355.945312 753.671875 355.390625 752.871094 L 354.273438 751.261719 C 353.777344 750.550781 352.691406 748.71875 352.316406 747.972656 L 351.300781 745.945312 C 350.828125 745.007812 349.996094 742.777344 349.753906 741.800781 L 349.367188 740.265625 C 349.214844 739.652344 348.726562 739.117188 347.980469 738.746094 L 347.40625 738.460938 C 347.027344 738.269531 346.609375 738.171875 346.1875 738.171875 L 344.070312 738.171875 C 343.617188 738.171875 343.179688 738.304688 342.804688 738.554688 L 342.226562 738.9375 C 341.480469 739.433594 341.066406 740.085938 341.042969 740.785156 L 339.960938 774.644531 C 339.9375 775.289062 340.253906 775.898438 340.789062 776.253906 C 341.351562 776.628906 342.011719 776.828125 342.6875 776.828125 L 345.46875 776.828125 C 345.976562 776.828125 346.46875 776.652344 346.859375 776.328125 L 347.460938 775.824219 C 348.097656 775.296875 348.675781 774.4375 348.84375 773.765625 L 348.988281 773.191406 C 349.074219 772.839844 349.371094 772.460938 349.75 772.207031 L 350.953125 771.40625 C 351.265625 771.199219 351.632812 771.089844 352.007812 771.089844 L 352.582031 771.089844 C 353.292969 771.089844 354.085938 771.261719 354.660156 771.542969 L 360.8125 774.570312 C 363.832031 776.054688 370.554688 778.605469 374.011719 779.578125 L 377.96875 780.691406 C 379.871094 781.226562 384.113281 782.085938 386.140625 782.34375 L 391.511719 783.03125 C 394.054688 783.355469 399.757812 783.746094 402.351562 783.746094 L 407.09375 783.746094 C 409.355469 783.746094 414.273438 783.394531 416.492188 783.097656 L 422.796875 782.261719 C 425.824219 781.859375 432.167969 780.546875 435.007812 779.738281 L 438.09375 778.855469 C 439.578125 778.433594 442.605469 777.308594 443.921875 776.6875 L 447.441406 775.035156 C 449.171875 774.226562 452.402344 772.289062 453.796875 771.226562 L 456.40625 769.246094 C 457.667969 768.285156 460 766.066406 460.925781 764.949219 L 463.132812 762.277344 C 464.210938 760.972656 465.976562 758.101562 466.578125 756.667969 L 467.976562 753.351562 C 468.660156 751.722656 469.460938 748.289062 469.546875 746.597656 L 469.738281 742.765625 C 469.824219 740.929688 469.433594 736.976562 468.957031 735.164062 L 468.222656 732.339844 C 467.949219 731.308594 467.03125 729.015625 466.492188 728.03125 L 465.917969 726.976562 C 465.652344 726.492188 464.902344 725.398438 464.527344 724.945312 L 461.378906 721.179688 C 460.546875 720.179688 458.359375 718.011719 457.289062 717.121094 L 456.136719 716.164062 C 455.605469 715.722656 454.253906 714.765625 453.625 714.382812 L 451.140625 712.882812 C 450.011719 712.199219 447.148438 710.695312 445.886719 710.125 L 440.945312 707.882812 C 438.6875 706.859375 433.082031 704.691406 430.625 703.898438 L 422.09375 701.132812 C 418.515625 699.972656 408.742188 696.601562 405.25 695.324219 L 397.265625 692.402344 C 394.328125 691.328125 386.996094 688.332031 384.226562 687.078125 L 381.0625 685.640625 C 379.566406 684.964844 376.46875 683.257812 375.1875 682.40625 L 373.089844 681.007812 C 372.0625 680.324219 370.199219 678.757812 369.4375 677.933594 L 367.914062 676.285156 C 367.15625 675.464844 365.960938 673.707031 365.535156 672.789062 L 364.8125 671.226562 C 364.457031 670.457031 364.011719 668.832031 363.9375 668.03125 L 363.714844 665.671875 C 363.617188 664.621094 363.804688 662.472656 364.089844 661.433594 L 364.375 660.378906 C 364.523438 659.847656 365.019531 658.859375 365.382812 658.371094 L 368.78125 653.851562 C 369.632812 652.714844 371.65625 650.847656 373.007812 649.949219 L 374.300781 649.089844 C 374.953125 648.65625 376.386719 647.933594 377.191406 647.632812 L 380.996094 646.207031 C 382.980469 645.464844 386.847656 644.523438 389.089844 644.242188 L 392.984375 643.746094 C 394.9375 643.5 398.855469 643.355469 400.835938 643.457031 L 406.667969 643.753906 C 409.257812 643.886719 414.28125 644.59375 416.730469 645.167969 L 419.175781 645.742188 C 420.3125 646.007812 422.832031 646.761719 423.886719 647.152344 L 425.34375 647.691406 C 426.050781 647.953125 427.429688 648.609375 428.03125 648.972656 L 433.457031 652.238281 C 436.253906 653.921875 440.660156 657.535156 442.5625 659.703125 L 444.75 662.195312 C 445.820312 663.417969 447.566406 666.09375 448.179688 667.449219 L 449.972656 671.425781 C 450.226562 671.992188 450.824219 672.5625 451.535156 672.914062 L 452.109375 673.203125 C 452.46875 673.378906 452.960938 673.488281 453.40625 673.488281 L 454.195312 673.488281 C 454.644531 673.488281 455.292969 673.386719 455.695312 673.253906 L 456.492188 672.988281 C 456.957031 672.835938 457.492188 672.519531 457.78125 672.230469 L 458.109375 671.902344 C 458.3125 671.703125 458.433594 671.421875 458.425781 671.183594 L 457.324219 643.0625 C 457.304688 642.476562 456.953125 641.808594 456.425781 641.339844 L 455.996094 640.957031 C 455.71875 640.710938 455.308594 640.539062 454.859375 640.480469 L 453.265625 640.269531 C 452.882812 640.21875 452.492188 640.222656 452.109375 640.285156 L 451.535156 640.382812 C 450.796875 640.503906 450.148438 640.808594 449.726562 641.230469 L 448.332031 642.625 C 447.4375 643.515625 446.222656 644.019531 444.960938 644.019531 L 443.945312 644.019531 C 442.5 644.019531 441.070312 643.726562 439.742188 643.15625 L 437.726562 642.296875 C 435.847656 641.492188 431.347656 639.914062 429.292969 639.332031 L 424.019531 637.847656 C 421.464844 637.128906 415.835938 636.003906 413.113281 635.671875 L 406.933594 634.910156 C 404.453125 634.601562 401.957031 634.480469 399.460938 634.546875 L 392.191406 634.730469 C 390.285156 634.78125 386.28125 635.175781 384.4375 635.496094 Z M 384.4375 635.496094 " clip-rule="nonzero"/></clipPath><clipPath id="9a64694af7"><path d="M 0.925781 0.449219 L 130.679688 0.449219 L 130.679688 149.832031 L 0.925781 149.832031 Z M 0.925781 0.449219 " clip-rule="nonzero"/></clipPath><clipPath id="30b74106b5"><path d="M 45.4375 1.496094 L 41.621094 2.15625 C 38.929688 2.625 33.332031 4.023438 30.84375 4.851562 L 28.253906 5.714844 C 27 6.128906 24.507812 7.199219 23.417969 7.789062 L 19.9375 9.667969 C 18.207031 10.605469 15.128906 12.757812 13.808594 13.953125 L 11.96875 15.621094 C 11.113281 16.398438 9.386719 18.277344 8.742188 19.140625 L 7.710938 20.511719 C 7.21875 21.164062 6.363281 22.65625 6.074219 23.363281 L 4.648438 26.832031 C 3.960938 28.511719 3.089844 32.160156 2.957031 33.898438 L 2.804688 35.925781 C 2.730469 36.917969 2.933594 38.980469 3.199219 39.960938 L 4.078125 43.167969 C 4.515625 44.78125 6.007812 47.84375 7.070312 49.320312 L 10.039062 53.457031 C 10.632812 54.277344 12.183594 55.984375 13.007812 56.710938 L 13.871094 57.476562 C 14.273438 57.835938 15.292969 58.597656 15.777344 58.902344 L 21.726562 62.664062 C 23.835938 63.996094 29 66.738281 31.417969 67.8125 L 34.007812 68.960938 C 35.128906 69.457031 38.140625 70.675781 39.320312 71.109375 L 83.222656 87.222656 C 84.757812 87.789062 88.390625 89.324219 89.8125 90.011719 L 91.394531 90.777344 C 92.121094 91.128906 93.71875 92.039062 94.359375 92.460938 L 96.542969 93.914062 C 97.570312 94.597656 99.660156 96.265625 100.488281 97.058594 L 102.195312 98.703125 C 103.054688 99.527344 104.402344 101.285156 104.90625 102.230469 L 106.132812 104.539062 C 106.777344 105.757812 107.359375 108.011719 107.359375 109.300781 L 107.359375 118.210938 C 107.359375 119.472656 106.808594 121.730469 106.207031 122.925781 L 105.632812 124.074219 C 105.363281 124.613281 104.59375 125.789062 104.183594 126.285156 L 102.894531 127.859375 C 102.253906 128.640625 100.679688 130.09375 99.765625 130.742188 L 96.660156 132.960938 C 95.046875 134.105469 91.632812 135.882812 89.570312 136.644531 L 86.382812 137.824219 C 84.828125 138.398438 81.402344 139.34375 79.691406 139.667969 L 77.414062 140.101562 C 76.265625 140.320312 73.972656 140.53125 72.773438 140.53125 L 57.054688 140.53125 C 55.691406 140.53125 54.332031 140.40625 52.992188 140.148438 L 50.976562 139.765625 C 49.078125 139.40625 44.972656 138.34375 43.203125 137.753906 L 41.050781 137.039062 C 40.039062 136.703125 37.875 135.8125 36.96875 135.359375 L 35.632812 134.695312 C 35.023438 134.390625 33.648438 133.597656 33.113281 133.238281 L 28.058594 129.875 C 26.074219 128.558594 22.296875 125.449219 20.773438 123.882812 L 19.191406 122.257812 C 18.472656 121.515625 16.945312 119.671875 16.390625 118.871094 L 15.273438 117.261719 C 14.777344 116.550781 13.691406 114.71875 13.316406 113.972656 L 12.300781 111.945312 C 11.828125 111.007812 10.996094 108.777344 10.753906 107.800781 L 10.367188 106.265625 C 10.214844 105.652344 9.726562 105.117188 8.980469 104.746094 L 8.40625 104.460938 C 8.027344 104.269531 7.609375 104.171875 7.1875 104.171875 L 5.070312 104.171875 C 4.617188 104.171875 4.179688 104.304688 3.804688 104.554688 L 3.226562 104.9375 C 2.480469 105.433594 2.066406 106.085938 2.042969 106.785156 L 0.960938 140.644531 C 0.9375 141.289062 1.253906 141.898438 1.789062 142.253906 C 2.351562 142.628906 3.011719 142.828125 3.6875 142.828125 L 6.46875 142.828125 C 6.976562 142.828125 7.46875 142.652344 7.859375 142.328125 L 8.460938 141.824219 C 9.097656 141.296875 9.675781 140.4375 9.84375 139.765625 L 9.988281 139.191406 C 10.074219 138.839844 10.371094 138.460938 10.75 138.207031 L 11.953125 137.40625 C 12.265625 137.199219 12.632812 137.089844 13.007812 137.089844 L 13.582031 137.089844 C 14.292969 137.089844 15.085938 137.261719 15.660156 137.542969 L 21.8125 140.570312 C 24.832031 142.054688 31.554688 144.605469 35.011719 145.578125 L 38.96875 146.691406 C 40.871094 147.226562 45.113281 148.085938 47.140625 148.34375 L 52.511719 149.03125 C 55.054688 149.355469 60.757812 149.746094 63.351562 149.746094 L 68.09375 149.746094 C 70.355469 149.746094 75.273438 149.394531 77.492188 149.097656 L 83.796875 148.261719 C 86.824219 147.859375 93.167969 146.546875 96.007812 145.738281 L 99.09375 144.855469 C 100.578125 144.433594 103.605469 143.308594 104.921875 142.6875 L 108.441406 141.035156 C 110.171875 140.226562 113.402344 138.289062 114.796875 137.226562 L 117.40625 135.246094 C 118.667969 134.285156 121 132.066406 121.925781 130.949219 L 124.132812 128.277344 C 125.210938 126.972656 126.976562 124.101562 127.578125 122.667969 L 128.976562 119.351562 C 129.660156 117.722656 130.460938 114.289062 130.546875 112.597656 L 130.738281 108.765625 C 130.824219 106.929688 130.433594 102.976562 129.957031 101.164062 L 129.222656 98.339844 C 128.949219 97.308594 128.03125 95.015625 127.492188 94.03125 L 126.917969 92.976562 C 126.652344 92.492188 125.902344 91.398438 125.527344 90.945312 L 122.378906 87.179688 C 121.546875 86.179688 119.359375 84.011719 118.289062 83.121094 L 117.136719 82.164062 C 116.605469 81.722656 115.253906 80.765625 114.625 80.382812 L 112.140625 78.882812 C 111.011719 78.199219 108.148438 76.695312 106.886719 76.125 L 101.945312 73.882812 C 99.6875 72.859375 94.082031 70.691406 91.625 69.898438 L 83.09375 67.132812 C 79.515625 65.972656 69.742188 62.601562 66.25 61.324219 L 58.265625 58.402344 C 55.328125 57.328125 47.996094 54.332031 45.226562 53.078125 L 42.0625 51.640625 C 40.566406 50.964844 37.46875 49.257812 36.1875 48.40625 L 34.089844 47.007812 C 33.0625 46.324219 31.199219 44.757812 30.4375 43.933594 L 28.914062 42.285156 C 28.15625 41.464844 26.960938 39.707031 26.535156 38.789062 L 25.8125 37.226562 C 25.457031 36.457031 25.011719 34.832031 24.9375 34.03125 L 24.714844 31.671875 C 24.617188 30.621094 24.804688 28.472656 25.089844 27.433594 L 25.375 26.378906 C 25.523438 25.847656 26.019531 24.859375 26.382812 24.371094 L 29.78125 19.851562 C 30.632812 18.714844 32.65625 16.847656 34.007812 15.949219 L 35.300781 15.089844 C 35.953125 14.65625 37.386719 13.933594 38.191406 13.632812 L 41.996094 12.207031 C 43.980469 11.464844 47.847656 10.523438 50.089844 10.242188 L 53.984375 9.746094 C 55.9375 9.5 59.855469 9.355469 61.835938 9.457031 L 67.667969 9.753906 C 70.257812 9.886719 75.28125 10.59375 77.730469 11.167969 L 80.175781 11.742188 C 81.3125 12.007812 83.832031 12.761719 84.886719 13.152344 L 86.34375 13.691406 C 87.050781 13.953125 88.429688 14.609375 89.03125 14.972656 L 94.457031 18.238281 C 97.253906 19.921875 101.660156 23.535156 103.5625 25.703125 L 105.75 28.195312 C 106.820312 29.417969 108.566406 32.09375 109.179688 33.449219 L 110.972656 37.425781 C 111.226562 37.992188 111.824219 38.5625 112.535156 38.914062 L 113.109375 39.203125 C 113.46875 39.378906 113.960938 39.488281 114.40625 39.488281 L 115.195312 39.488281 C 115.644531 39.488281 116.292969 39.386719 116.695312 39.253906 L 117.492188 38.988281 C 117.957031 38.835938 118.492188 38.519531 118.78125 38.230469 L 119.109375 37.902344 C 119.3125 37.703125 119.433594 37.421875 119.425781 37.183594 L 118.324219 9.0625 C 118.304688 8.476562 117.953125 7.808594 117.425781 7.339844 L 116.996094 6.957031 C 116.71875 6.710938 116.308594 6.539062 115.859375 6.480469 L 114.265625 6.269531 C 113.882812 6.21875 113.492188 6.222656 113.109375 6.285156 L 112.535156 6.382812 C 111.796875 6.503906 111.148438 6.808594 110.726562 7.230469 L 109.332031 8.625 C 108.4375 9.515625 107.222656 10.019531 105.960938 10.019531 L 104.945312 10.019531 C 103.5 10.019531 102.070312 9.726562 100.742188 9.15625 L 98.726562 8.296875 C 96.847656 7.492188 92.347656 5.914062 90.292969 5.332031 L 85.019531 3.847656 C 82.464844 3.128906 76.835938 2.003906 74.113281 1.671875 L 67.933594 0.910156 C 65.453125 0.601562 62.957031 0.480469 60.460938 0.546875 L 53.191406 0.730469 C 51.285156 0.78125 47.28125 1.175781 45.4375 1.496094 Z M 45.4375 1.496094 " clip-rule="nonzero"/></clipPath><clipPath id="b50eed50c5"><rect x="0" width="131" y="0" height="150"/></clipPath></defs><rect x="-150" width="1800" fill="#ffffff" y="-149.999993" height="1799.99992" fill-opacity="1"/><rect x="-150" width="1800" fill="#ffffff" y="-149.999993" height="1799.99992" fill-opacity="1"/><g fill="#0f2a3f" fill-opacity="1"><g transform="translate(609.296285, 780.335313)"><g><path d="M 49.125 2.5625 C 44.75 2.5625 40.082031 1.867188 35.125 0.484375 C 30.164062 -0.898438 25.601562 -2.820312 21.4375 -5.28125 L 21.28125 -5.28125 L 21.765625 1.4375 L 9.4375 1.4375 L 9.4375 -36 L 20 -36 C 21.382812 -27.25 24.742188 -20.550781 30.078125 -15.90625 C 35.410156 -11.269531 41.914062 -8.953125 49.59375 -8.953125 C 55.144531 -8.953125 59.734375 -10.421875 63.359375 -13.359375 C 66.984375 -16.296875 68.796875 -19.84375 68.796875 -24 C 68.796875 -27.414062 67.59375 -30.347656 65.1875 -32.796875 C 62.789062 -35.253906 60.125 -37.175781 57.1875 -38.5625 C 54.257812 -39.945312 49.597656 -41.921875 43.203125 -44.484375 C 31.460938 -49.171875 22.472656 -54.5 16.234375 -60.46875 C 9.992188 -66.445312 6.875 -74.289062 6.875 -84 C 6.875 -88.90625 8.097656 -93.675781 10.546875 -98.3125 C 13.003906 -102.957031 17.035156 -106.828125 22.640625 -109.921875 C 28.242188 -113.015625 35.46875 -114.5625 44.3125 -114.5625 C 48.90625 -114.5625 53.707031 -113.894531 58.71875 -112.5625 C 63.726562 -111.226562 67.890625 -109.332031 71.203125 -106.875 L 71.359375 -106.875 L 70.71875 -113.4375 L 83.203125 -113.4375 L 83.203125 -76.15625 L 72.640625 -76.15625 C 71.253906 -84.90625 68.1875 -91.570312 63.4375 -96.15625 C 58.6875 -100.75 52.632812 -103.046875 45.28125 -103.046875 C 40.476562 -103.046875 36.34375 -101.738281 32.875 -99.125 C 29.414062 -96.507812 27.6875 -93.226562 27.6875 -89.28125 C 27.6875 -84.582031 29.65625 -80.632812 33.59375 -77.4375 C 37.539062 -74.238281 44.207031 -70.71875 53.59375 -66.875 C 64.375 -62.613281 73.148438 -57.679688 79.921875 -52.078125 C 86.691406 -46.484375 90.078125 -39.046875 90.078125 -29.765625 C 90.078125 -23.460938 88.367188 -17.859375 84.953125 -12.953125 C 81.546875 -8.046875 76.75 -4.234375 70.5625 -1.515625 C 64.375 1.203125 57.226562 2.5625 49.125 2.5625 Z M 49.125 2.5625 "/></g></g></g><g fill="#0f2a3f" fill-opacity="1"><g transform="translate(704.973942, 780.335313)"><g><path d="M 45.765625 2.5625 C 37.972656 2.5625 30.984375 0.910156 24.796875 -2.390625 C 18.609375 -5.703125 13.753906 -10.453125 10.234375 -16.640625 C 6.710938 -22.828125 4.953125 -30.023438 4.953125 -38.234375 C 4.953125 -46.878906 6.765625 -54.5625 10.390625 -61.28125 C 14.023438 -68 18.90625 -73.222656 25.03125 -76.953125 C 31.164062 -80.691406 37.914062 -82.5625 45.28125 -82.5625 C 52.957031 -82.5625 59.835938 -80.90625 65.921875 -77.59375 C 72.003906 -74.289062 76.800781 -69.519531 80.3125 -63.28125 C 83.832031 -57.039062 85.59375 -49.757812 85.59375 -41.4375 C 85.59375 -32.582031 83.910156 -24.847656 80.546875 -18.234375 C 77.191406 -11.617188 72.5 -6.5 66.46875 -2.875 C 60.445312 0.75 53.546875 2.5625 45.765625 2.5625 Z M 46.078125 -8.796875 C 51.941406 -8.796875 56.046875 -11.515625 58.390625 -16.953125 C 60.742188 -22.398438 61.921875 -29.226562 61.921875 -37.4375 C 61.921875 -46.613281 60.585938 -54.5625 57.921875 -61.28125 C 55.253906 -68 51.039062 -71.359375 45.28125 -71.359375 C 39.414062 -71.359375 35.148438 -68.582031 32.484375 -63.03125 C 29.816406 -57.488281 28.484375 -50.664062 28.484375 -42.5625 C 28.484375 -33.28125 29.921875 -25.332031 32.796875 -18.71875 C 35.679688 -12.101562 40.109375 -8.796875 46.078125 -8.796875 Z M 46.078125 -8.796875 "/></g></g></g><g fill="#0f2a3f" fill-opacity="1"><g transform="translate(794.891732, 780.335313)"><g><path d="M 6.875 -10.40625 C 10.925781 -10.40625 13.539062 -11.523438 14.71875 -13.765625 C 15.894531 -16.003906 16.484375 -19.628906 16.484375 -24.640625 L 16.484375 -66.875 L 4.796875 -66.71875 L 4.796875 -80 L 16.484375 -80 L 16.484375 -84.640625 C 16.484375 -97.117188 19.203125 -106.265625 24.640625 -112.078125 C 30.078125 -117.890625 37.8125 -120.796875 47.84375 -120.796875 C 54.769531 -120.796875 59.882812 -119.410156 63.1875 -116.640625 C 66.5 -113.867188 68.15625 -110.5625 68.15625 -106.71875 C 68.15625 -103.726562 67.25 -101.191406 65.4375 -99.109375 C 63.625 -97.035156 61.117188 -96 57.921875 -96 C 54.929688 -96 52.609375 -96.851562 50.953125 -98.5625 C 49.304688 -100.269531 48.484375 -102.457031 48.484375 -105.125 C 48.484375 -106.507812 48.585938 -107.570312 48.796875 -108.3125 C 47.941406 -109.164062 46.71875 -109.59375 45.125 -109.59375 C 40.851562 -109.488281 38.71875 -106.1875 38.71875 -99.6875 L 38.71875 -80 L 56.640625 -80 L 56.640625 -67.6875 L 38.875 -67.203125 L 39.046875 -26.078125 C 39.046875 -20.742188 38.832031 -15.945312 38.40625 -11.6875 C 41.925781 -12 45.65625 -12.15625 49.59375 -12.15625 L 49.59375 0 L 6.875 0 Z M 6.875 -10.40625 "/></g></g></g><g fill="#0f2a3f" fill-opacity="1"><g transform="translate(853.930297, 780.335313)"><g><path d="M 38.234375 2.5625 C 21.597656 2.5625 13.28125 -7.675781 13.28125 -28.15625 L 13.59375 -66.71875 L 2.71875 -66.71875 L 2.71875 -80 C 6.132812 -80 9.359375 -81.066406 12.390625 -83.203125 C 15.429688 -85.335938 18.019531 -87.953125 20.15625 -91.046875 C 22.289062 -94.140625 23.785156 -97.125 24.640625 -100 L 36.484375 -100 L 36.3125 -80 L 56.640625 -80 L 56.640625 -67.6875 L 36.3125 -67.203125 L 36.15625 -27.84375 C 36.15625 -17.488281 39.359375 -12.3125 45.765625 -12.3125 C 50.878906 -12.3125 55.726562 -15.515625 60.3125 -21.921875 L 68 -14.71875 C 62.988281 -7.363281 57.972656 -2.644531 52.953125 -0.5625 C 47.941406 1.519531 43.035156 2.5625 38.234375 2.5625 Z M 38.234375 2.5625 "/></g></g></g><g fill="#0f2a3f" fill-opacity="1"><g transform="translate(919.368661, 780.335313)"><g><path d="M 8 -10.5625 C 10.875 -10.664062 13.054688 -11.007812 14.546875 -11.59375 C 16.046875 -12.1875 17.222656 -13.441406 18.078125 -15.359375 C 18.929688 -17.273438 19.359375 -20.316406 19.359375 -24.484375 L 19.359375 -85.765625 C 19.359375 -91.734375 19.570312 -96.53125 20 -100.15625 L 8 -99.6875 L 8 -112 L 53.921875 -112 L 53.921875 -101.4375 C 51.035156 -101.332031 48.847656 -100.984375 47.359375 -100.390625 C 45.867188 -99.804688 44.695312 -98.554688 43.84375 -96.640625 C 42.988281 -94.722656 42.5625 -91.679688 42.5625 -87.515625 L 42.5625 -62.5625 L 86.5625 -62.5625 L 86.5625 -85.765625 C 86.5625 -92.910156 86.773438 -97.707031 87.203125 -100.15625 L 75.203125 -99.6875 L 75.203125 -112 L 121.125 -112 L 121.125 -101.4375 C 118.238281 -101.332031 116.046875 -100.984375 114.546875 -100.390625 C 113.054688 -99.804688 111.882812 -98.554688 111.03125 -96.640625 C 110.1875 -94.722656 109.765625 -91.679688 109.765625 -87.515625 L 109.765625 -26.234375 C 109.765625 -20.265625 109.550781 -15.46875 109.125 -11.84375 C 112.53125 -12.15625 116.53125 -12.3125 121.125 -12.3125 L 121.125 0 L 75.203125 0 L 75.203125 -10.5625 C 78.078125 -10.664062 80.257812 -11.007812 81.75 -11.59375 C 83.25 -12.1875 84.425781 -13.441406 85.28125 -15.359375 C 86.132812 -17.273438 86.5625 -20.316406 86.5625 -24.484375 L 86.5625 -50.40625 L 42.5625 -49.921875 L 42.5625 -26.234375 C 42.5625 -20.265625 42.347656 -15.46875 41.921875 -11.84375 C 45.335938 -12.15625 49.335938 -12.3125 53.921875 -12.3125 L 53.921875 0 L 8 0 Z M 8 -10.5625 "/></g></g></g><g fill="#0f2a3f" fill-opacity="1"><g transform="translate(1046.565523, 780.335313)"><g><path d="M 29.125 -95.84375 C 25.5 -95.84375 22.507812 -97.09375 20.15625 -99.59375 C 17.8125 -102.101562 16.640625 -105.171875 16.640625 -108.796875 C 16.640625 -112.421875 17.863281 -115.539062 20.3125 -118.15625 C 22.769531 -120.769531 25.648438 -122.078125 28.953125 -122.078125 C 32.367188 -122.078125 35.222656 -120.796875 37.515625 -118.234375 C 39.804688 -115.679688 40.953125 -112.535156 40.953125 -108.796875 C 40.953125 -105.066406 39.859375 -101.972656 37.671875 -99.515625 C 35.492188 -97.066406 32.644531 -95.84375 29.125 -95.84375 Z M 6.5625 -10.40625 C 10.613281 -10.40625 13.195312 -11.523438 14.3125 -13.765625 C 15.4375 -16.003906 16 -19.628906 16 -24.640625 L 16 -51.203125 C 16 -56.210938 16.210938 -60.851562 16.640625 -65.125 L 5.4375 -64.640625 L 5.4375 -76.796875 C 12.15625 -76.796875 17.59375 -77.273438 21.75 -78.234375 C 25.914062 -79.203125 28.691406 -80.320312 30.078125 -81.59375 L 38.71875 -81.59375 L 38.71875 -25.765625 C 38.71875 -20.640625 38.503906 -15.945312 38.078125 -11.6875 C 41.492188 -12 44.960938 -12.15625 48.484375 -12.15625 L 48.484375 0 L 6.5625 0 Z M 6.5625 -10.40625 "/></g></g></g><g fill="#0f2a3f" fill-opacity="1"><g transform="translate(1098.884244, 780.335313)"><g><path d="M 6.5625 -10.40625 C 10.613281 -10.40625 13.195312 -11.523438 14.3125 -13.765625 C 15.4375 -16.003906 16 -19.628906 16 -24.640625 L 16 -51.515625 C 16 -56.316406 16.210938 -60.851562 16.640625 -65.125 L 5.4375 -64.640625 L 5.4375 -76.796875 C 12.15625 -76.796875 17.59375 -77.273438 21.75 -78.234375 C 25.914062 -79.203125 28.691406 -80.320312 30.078125 -81.59375 L 37.921875 -81.59375 C 38.128906 -80 38.285156 -77.921875 38.390625 -75.359375 C 38.503906 -72.796875 38.5625 -70.289062 38.5625 -67.84375 L 38.875 -67.84375 C 46.132812 -77.65625 53.816406 -82.5625 61.921875 -82.5625 C 65.972656 -82.5625 69.304688 -81.441406 71.921875 -79.203125 C 74.535156 -76.960938 75.84375 -73.65625 75.84375 -69.28125 C 75.84375 -66.507812 74.9375 -63.945312 73.125 -61.59375 C 71.3125 -59.25 68.585938 -58.078125 64.953125 -58.078125 C 62.285156 -58.078125 59.910156 -58.769531 57.828125 -60.15625 C 55.753906 -61.539062 54.554688 -63.941406 54.234375 -67.359375 C 51.253906 -67.359375 48.1875 -65.625 45.03125 -62.15625 C 41.882812 -58.6875 39.78125 -55.25 38.71875 -51.84375 L 38.71875 -25.765625 C 38.71875 -20.640625 38.503906 -15.945312 38.078125 -11.6875 C 41.492188 -12 44.960938 -12.15625 48.484375 -12.15625 L 48.484375 0 L 6.5625 0 Z M 6.5625 -10.40625 "/></g></g></g><g fill="#0f2a3f" fill-opacity="1"><g transform="translate(1174.40238, 780.335313)"><g><path d="M 44.484375 2.5625 C 36.691406 2.5625 29.804688 0.828125 23.828125 -2.640625 C 17.859375 -6.109375 13.21875 -11.039062 9.90625 -17.4375 C 6.601562 -23.84375 4.953125 -31.3125 4.953125 -39.84375 C 4.953125 -47.3125 6.632812 -54.320312 10 -60.875 C 13.363281 -67.4375 18.082031 -72.691406 24.15625 -76.640625 C 30.238281 -80.585938 37.171875 -82.5625 44.953125 -82.5625 C 55.304688 -82.5625 63.921875 -79.519531 70.796875 -73.4375 C 77.679688 -67.351562 81.066406 -57.222656 80.953125 -43.046875 L 28.484375 -42.078125 C 28.484375 -32.691406 30.269531 -25.28125 33.84375 -19.84375 C 37.414062 -14.40625 43.148438 -11.6875 51.046875 -11.6875 C 54.773438 -11.6875 58.769531 -12.644531 63.03125 -14.5625 C 67.300781 -16.476562 71.144531 -19.519531 74.5625 -23.6875 L 81.765625 -16.953125 C 72.691406 -3.941406 60.265625 2.5625 44.484375 2.5625 Z M 58.875 -53.28125 C 58.5625 -65.332031 54.191406 -71.359375 45.765625 -71.359375 C 41.171875 -71.359375 37.515625 -69.726562 34.796875 -66.46875 C 32.078125 -63.21875 30.289062 -58.820312 29.4375 -53.28125 Z M 58.875 -53.28125 "/></g></g></g><g fill="#000000" fill-opacity="1"><g transform="translate(1260.483729, 780.335313)"><g/></g></g><g clip-path="url(#07cfa3ba80)"><path fill="#f8fafc" d="M 313.261719 527.734375 L 496.277344 527.734375 C 497.746094 527.734375 499.214844 527.769531 500.683594 527.84375 C 502.152344 527.914062 503.617188 528.023438 505.078125 528.167969 C 506.542969 528.3125 508 528.492188 509.453125 528.707031 C 510.90625 528.921875 512.355469 529.171875 513.796875 529.460938 C 515.238281 529.746094 516.671875 530.066406 518.097656 530.425781 C 519.523438 530.78125 520.9375 531.175781 522.34375 531.601562 C 523.75 532.027344 525.148438 532.488281 526.53125 532.984375 C 527.914062 533.476562 529.285156 534.007812 530.644531 534.570312 C 532 535.132812 533.34375 535.726562 534.671875 536.355469 C 536 536.984375 537.3125 537.644531 538.609375 538.335938 C 539.90625 539.03125 541.183594 539.753906 542.445312 540.511719 C 543.703125 541.265625 544.945312 542.050781 546.167969 542.867188 C 547.390625 543.683594 548.589844 544.53125 549.769531 545.40625 C 550.953125 546.28125 552.109375 547.183594 553.246094 548.117188 C 554.382812 549.050781 555.496094 550.007812 556.582031 550.996094 C 557.671875 551.984375 558.738281 552.996094 559.777344 554.035156 C 560.816406 555.074219 561.828125 556.140625 562.816406 557.226562 C 563.800781 558.316406 564.761719 559.429688 565.695312 560.566406 C 566.625 561.703125 567.53125 562.859375 568.40625 564.039062 C 569.28125 565.21875 570.125 566.421875 570.941406 567.644531 C 571.757812 568.867188 572.546875 570.105469 573.300781 571.367188 C 574.058594 572.628906 574.78125 573.90625 575.472656 575.203125 C 576.167969 576.5 576.828125 577.808594 577.457031 579.140625 C 578.082031 580.46875 578.679688 581.8125 579.242188 583.167969 C 579.804688 584.527344 580.332031 585.898438 580.828125 587.28125 C 581.324219 588.664062 581.785156 590.058594 582.210938 591.464844 C 582.636719 592.871094 583.027344 594.289062 583.386719 595.714844 C 583.742188 597.140625 584.066406 598.574219 584.351562 600.015625 C 584.636719 601.457031 584.890625 602.902344 585.105469 604.355469 C 585.320312 605.808594 585.5 607.269531 585.644531 608.730469 C 585.789062 610.195312 585.898438 611.660156 585.96875 613.125 C 586.042969 614.59375 586.078125 616.0625 586.078125 617.53125 L 586.078125 800.546875 C 586.078125 802.019531 586.042969 803.488281 585.96875 804.953125 C 585.898438 806.421875 585.789062 807.886719 585.644531 809.351562 C 585.5 810.8125 585.320312 812.269531 585.105469 813.726562 C 584.890625 815.179688 584.636719 816.625 584.351562 818.066406 C 584.066406 819.507812 583.742188 820.941406 583.386719 822.367188 C 583.027344 823.792969 582.636719 825.210938 582.210938 826.617188 C 581.785156 828.023438 581.324219 829.417969 580.828125 830.800781 C 580.332031 832.183594 579.804688 833.554688 579.242188 834.914062 C 578.679688 836.269531 578.082031 837.613281 577.457031 838.941406 C 576.828125 840.269531 576.167969 841.582031 575.472656 842.878906 C 574.78125 844.175781 574.058594 845.453125 573.300781 846.714844 C 572.546875 847.976562 571.757812 849.214844 570.941406 850.4375 C 570.125 851.660156 569.28125 852.859375 568.40625 854.042969 C 567.53125 855.222656 566.625 856.378906 565.695312 857.515625 C 564.761719 858.652344 563.800781 859.765625 562.816406 860.855469 C 561.828125 861.941406 560.816406 863.007812 559.777344 864.046875 C 558.738281 865.085938 557.671875 866.097656 556.582031 867.085938 C 555.496094 868.070312 554.382812 869.03125 553.246094 869.964844 C 552.109375 870.894531 550.953125 871.800781 549.769531 872.675781 C 548.589844 873.550781 547.390625 874.398438 546.167969 875.214844 C 544.945312 876.03125 543.703125 876.816406 542.445312 877.570312 C 541.183594 878.328125 539.90625 879.050781 538.609375 879.742188 C 537.3125 880.4375 536 881.097656 534.671875 881.726562 C 533.34375 882.355469 532 882.949219 530.644531 883.511719 C 529.285156 884.074219 527.914062 884.601562 526.53125 885.097656 C 525.148438 885.59375 523.75 886.054688 522.34375 886.480469 C 520.9375 886.90625 519.523438 887.300781 518.097656 887.65625 C 516.671875 888.011719 515.238281 888.335938 513.796875 888.621094 C 512.355469 888.910156 510.90625 889.160156 509.453125 889.375 C 508 889.589844 506.542969 889.769531 505.078125 889.914062 C 503.617188 890.058594 502.152344 890.167969 500.683594 890.238281 C 499.214844 890.3125 497.746094 890.347656 496.277344 890.347656 L 313.261719 890.347656 C 311.792969 890.347656 310.324219 890.3125 308.855469 890.238281 C 307.390625 890.167969 305.921875 890.058594 304.460938 889.914062 C 303 889.769531 301.539062 889.589844 300.085938 889.375 C 298.632812 889.160156 297.183594 888.910156 295.742188 888.621094 C 294.300781 888.335938 292.867188 888.011719 291.445312 887.65625 C 290.019531 887.300781 288.601562 886.90625 287.195312 886.480469 C 285.789062 886.054688 284.394531 885.59375 283.011719 885.097656 C 281.625 884.601562 280.257812 884.074219 278.898438 883.511719 C 277.539062 882.949219 276.199219 882.355469 274.867188 881.726562 C 273.539062 881.097656 272.226562 880.4375 270.933594 879.742188 C 269.636719 879.050781 268.359375 878.328125 267.097656 877.570312 C 265.835938 876.816406 264.59375 876.03125 263.375 875.214844 C 262.152344 874.398438 260.949219 873.550781 259.769531 872.675781 C 258.589844 871.800781 257.429688 870.894531 256.296875 869.964844 C 255.160156 869.03125 254.046875 868.070312 252.957031 867.085938 C 251.867188 866.097656 250.804688 865.085938 249.765625 864.046875 C 248.726562 863.007812 247.714844 861.941406 246.726562 860.855469 C 245.738281 859.765625 244.78125 858.652344 243.847656 857.515625 C 242.914062 856.378906 242.011719 855.222656 241.136719 854.042969 C 240.261719 852.859375 239.414062 851.660156 238.597656 850.4375 C 237.78125 849.214844 236.996094 847.976562 236.238281 846.714844 C 235.484375 845.453125 234.761719 844.175781 234.066406 842.878906 C 233.375 841.582031 232.714844 840.269531 232.085938 838.941406 C 231.457031 837.613281 230.863281 836.269531 230.300781 834.914062 C 229.738281 833.554688 229.207031 832.183594 228.714844 830.800781 C 228.21875 829.417969 227.757812 828.023438 227.332031 826.617188 C 226.902344 825.210938 226.511719 823.792969 226.15625 822.367188 C 225.796875 820.941406 225.476562 819.507812 225.1875 818.066406 C 224.902344 816.625 224.652344 815.179688 224.4375 813.726562 C 224.21875 812.269531 224.039062 810.8125 223.894531 809.351562 C 223.753906 807.886719 223.644531 806.421875 223.570312 804.953125 C 223.5 803.488281 223.464844 802.019531 223.464844 800.546875 L 223.464844 617.53125 C 223.464844 616.0625 223.5 614.59375 223.570312 613.125 C 223.644531 611.660156 223.753906 610.195312 223.894531 608.730469 C 224.039062 607.269531 224.21875 605.808594 224.4375 604.355469 C 224.652344 602.902344 224.902344 601.457031 225.1875 600.015625 C 225.476562 598.574219 225.796875 597.140625 226.15625 595.714844 C 226.511719 594.289062 226.902344 592.871094 227.332031 591.464844 C 227.757812 590.058594 228.21875 588.664062 228.714844 587.28125 C 229.207031 585.898438 229.738281 584.527344 230.300781 583.167969 C 230.863281 581.8125 231.457031 580.46875 232.085938 579.140625 C 232.714844 577.808594 233.375 576.5 234.066406 575.203125 C 234.761719 573.90625 235.484375 572.628906 236.238281 571.367188 C 236.996094 570.105469 237.78125 568.867188 238.597656 567.644531 C 239.414062 566.421875 240.261719 565.21875 241.136719 564.039062 C 242.011719 562.859375 242.914062 561.703125 243.847656 560.566406 C 244.78125 559.429688 245.738281 558.316406 246.726562 557.226562 C 247.714844 556.140625 248.726562 555.074219 249.765625 554.035156 C 250.804688 552.996094 251.867188 551.984375 252.957031 550.996094 C 254.046875 550.007812 255.160156 549.050781 256.296875 548.117188 C 257.429688 547.183594 258.589844 546.28125 259.769531 545.40625 C 260.949219 544.53125 262.152344 543.683594 263.375 542.867188 C 264.59375 542.050781 265.835938 541.265625 267.097656 540.511719 C 268.359375 539.753906 269.636719 539.03125 270.933594 538.335938 C 272.226562 537.644531 273.539062 536.984375 274.867188 536.355469 C 276.199219 535.726562 277.539062 535.132812 278.898438 534.570312 C 280.257812 534.007812 281.625 533.476562 283.011719 532.984375 C 284.394531 532.488281 285.789062 532.027344 287.195312 531.601562 C 288.601562 531.175781 290.019531 530.78125 291.445312 530.425781 C 292.867188 530.066406 294.300781 529.746094 295.742188 529.460938 C 297.183594 529.171875 298.632812 528.921875 300.085938 528.707031 C 301.539062 528.492188 303 528.3125 304.460938 528.167969 C 305.921875 528.023438 307.390625 527.914062 308.855469 527.84375 C 310.324219 527.769531 311.792969 527.734375 313.261719 527.734375 Z M 313.261719 527.734375 " fill-opacity="1" fill-rule="nonzero"/></g><g clip-path="url(#1da721b3d5)"><g clip-path="url(#b83085fdee)"><g transform="matrix(1, 0, 0, 1, 339, 634)"><g clip-path="url(#b50eed50c5)"><g clip-path="url(#9a64694af7)"><g clip-path="url(#30b74106b5)"><path fill="#0f2a3f" d="M 0.925781 0.449219 L 130.621094 0.449219 L 130.621094 149.601562 L 0.925781 149.601562 Z M 0.925781 0.449219 " fill-opacity="1" fill-rule="nonzero"/></g></g></g></g></g></g></svg>