<svg width="55" height="47" viewBox="0 0 55 47" fill="none" xmlns="http://www.w3.org/2000/svg">
<path d="M1.19115 25.0173L4.47833 21.4929L30.6977 42.6679C34.391 45.6507 38.3589 48.0498 41.5077 44.6738L53.1525 32.3608L47.7579 37.9727C44.6201 41.3368 42.4484 42.5081 35.8312 37.1641L9.61181 15.989L12.6192 12.7646L1.62523 14.6268L1.19115 25.0173Z" fill="#4361EE" stroke="#4361EE" stroke-width="1.22556"/>
<path d="M53.4082 21.9793L50.121 25.5037L23.9016 4.32865C20.2083 1.3459 16.2404 -1.05318 13.0916 2.32279L1.78084 14.5404L6.84148 9.02393C9.97924 5.65977 12.151 4.48844 18.7681 9.83253L44.9875 31.0076L41.9801 34.2319L52.9741 32.3698L53.4082 21.9793Z" fill="#4895EF" stroke="#4895EF" stroke-width="1.22556"/>
</svg>
