<svg width="108" height="22" viewBox="0 0 108 22" fill="none" xmlns="http://www.w3.org/2000/svg">
<path d="M8.4055 21.1342C7.15195 21.1342 5.98669 20.9047 4.9097 20.4456C3.85037 19.9866 2.93228 19.351 2.15543 18.5388C1.39624 17.709 0.840093 16.7468 0.486982 15.6522L3.4796 14.3545C3.9563 15.4844 4.64487 16.376 5.5453 17.0293C6.44573 17.6649 7.46093 17.9827 8.59088 17.9827C9.22648 17.9827 9.7738 17.8856 10.2328 17.6914C10.7095 17.4795 11.0715 17.197 11.3187 16.8439C11.5835 16.4908 11.7159 16.0671 11.7159 15.5727C11.7159 14.9901 11.5394 14.5134 11.1862 14.1426C10.8508 13.7542 10.3388 13.454 9.65022 13.2422L5.8631 12.0239C4.32707 11.5472 3.17063 10.8322 2.39378 9.87879C1.61694 8.92539 1.22852 7.80426 1.22852 6.51541C1.22852 5.38545 1.50218 4.38791 2.0495 3.52279C2.61448 2.65767 3.39132 1.98676 4.38003 1.51006C5.3864 1.0157 6.53401 0.768522 7.82287 0.768522C9.00579 0.768522 10.0916 0.980389 11.0803 1.40412C12.069 1.8102 12.9165 2.38401 13.6227 3.12554C14.3466 3.84942 14.8851 4.70571 15.2382 5.69442L12.2721 7.01859C11.8836 6.02988 11.301 5.27069 10.5242 4.74102C9.74732 4.1937 8.84689 3.92004 7.82287 3.92004C7.22258 3.92004 6.69291 4.02597 6.23387 4.23784C5.77482 4.43205 5.41288 4.71454 5.14805 5.08531C4.90087 5.43842 4.77728 5.86215 4.77728 6.35651C4.77728 6.90383 4.95384 7.38936 5.30695 7.81309C5.66006 8.21917 6.19855 8.53697 6.92243 8.76649L10.5506 9.90527C12.122 10.4173 13.2961 11.1235 14.0729 12.0239C14.8674 12.9244 15.2647 14.0367 15.2647 15.3608C15.2647 16.4908 14.9734 17.4883 14.3907 18.3535C13.8081 19.2186 13.0048 19.8983 11.9807 20.3927C10.9567 20.887 9.76498 21.1342 8.4055 21.1342ZM25.2611 21.1342C23.8487 21.1342 22.5598 20.8076 21.3945 20.1543C20.2469 19.5011 19.3288 18.6095 18.6403 17.4795C17.9694 16.3496 17.6339 15.0607 17.6339 13.6129C17.6339 12.1652 17.9694 10.8763 18.6403 9.74637C19.3288 8.61642 20.2469 7.72481 21.3945 7.07155C22.5421 6.4183 23.831 6.09167 25.2611 6.09167C26.6735 6.09167 27.9536 6.4183 29.1012 7.07155C30.2488 7.72481 31.1581 8.61642 31.829 9.74637C32.5175 10.8587 32.8618 12.1475 32.8618 13.6129C32.8618 15.0607 32.5175 16.3496 31.829 17.4795C31.1404 18.6095 30.2223 19.5011 29.0747 20.1543C27.9271 20.8076 26.6559 21.1342 25.2611 21.1342ZM25.2611 17.9562C26.038 17.9562 26.7177 17.7708 27.3003 17.4001C27.9006 17.0293 28.3685 16.5173 28.7039 15.864C29.0571 15.1931 29.2336 14.4428 29.2336 13.6129C29.2336 12.7655 29.0571 12.0239 28.7039 11.3883C28.3685 10.7351 27.9006 10.2231 27.3003 9.85231C26.7177 9.46388 26.038 9.26967 25.2611 9.26967C24.4666 9.26967 23.7692 9.46388 23.1689 9.85231C22.5686 10.2231 22.0919 10.7351 21.7388 11.3883C21.4034 12.0239 21.2356 12.7655 21.2356 13.6129C21.2356 14.4428 21.4034 15.1931 21.7388 15.864C22.0919 16.5173 22.5686 17.0293 23.1689 17.4001C23.7692 17.7708 24.4666 17.9562 25.2611 17.9562ZM36.8509 20.8164V9.50802H34.3085V6.40947H36.8509V5.93277C36.8509 4.83813 37.0716 3.91121 37.513 3.15202C37.972 2.37518 38.6076 1.78372 39.4198 1.37764C40.2319 0.971561 41.1941 0.768522 42.3064 0.768522C42.5183 0.768522 42.7478 0.786177 42.995 0.821488C43.2598 0.839144 43.4805 0.865628 43.6571 0.900938V3.89355C43.4805 3.85824 43.3128 3.84059 43.1539 3.84059C43.0127 3.82293 42.8802 3.81411 42.7567 3.81411C41.9798 3.81411 41.3795 3.99066 40.9558 4.34377C40.5321 4.67923 40.3202 5.20889 40.3202 5.93277V6.40947H43.5247V9.50802H40.3202V20.8164H36.8509ZM53.1557 20.9753C51.5314 20.9753 50.269 20.5339 49.3686 19.6511C48.4858 18.7507 48.0444 17.4883 48.0444 15.864V9.50802H45.555V6.40947H45.8198C46.526 6.40947 47.0734 6.22409 47.4618 5.85332C47.8502 5.48256 48.0444 4.94406 48.0444 4.23784V3.12554H51.5137V6.40947H54.8242V9.50802H51.5137V15.6786C51.5137 16.1553 51.5932 16.5614 51.7521 16.8969C51.9286 17.2323 52.1935 17.4883 52.5466 17.6649C52.9174 17.8414 53.3852 17.9297 53.9502 17.9297C54.0738 17.9297 54.215 17.9209 54.3739 17.9032C54.5505 17.8856 54.7182 17.8679 54.8771 17.8503V20.8164C54.6299 20.8517 54.3475 20.887 54.0297 20.9223C53.7119 20.9577 53.4205 20.9753 53.1557 20.9753ZM76.9506 20.8164V6.40947H80.4199V20.8164H76.9506ZM76.9506 4.79399V1.08632H80.4199V4.79399H76.9506ZM83.6231 20.8164V6.40947H86.8806V9.61396L86.6157 9.13726C86.9512 8.06027 87.472 7.30991 88.1783 6.88617C88.9021 6.46244 89.7673 6.25057 90.7736 6.25057H91.6211V9.32264H90.3764C89.3877 9.32264 88.5932 9.63161 87.9929 10.2496C87.3926 10.8498 87.0924 11.6973 87.0924 12.792V20.8164H83.6231ZM100.361 21.1342C98.8782 21.1342 97.5805 20.7988 96.4682 20.1278C95.3559 19.4569 94.4908 18.5477 93.8728 17.4001C93.2549 16.2524 92.9459 14.9812 92.9459 13.5865C92.9459 12.1387 93.2549 10.8587 93.8728 9.74637C94.5084 8.61642 95.3647 7.72481 96.4417 7.07155C97.5363 6.4183 98.7546 6.09167 100.096 6.09167C101.226 6.09167 102.215 6.27705 103.063 6.64782C103.928 7.01859 104.66 7.5306 105.261 8.18386C105.861 8.83711 106.32 9.58747 106.638 10.4349C106.956 11.2647 107.114 12.1652 107.114 13.1362C107.114 13.3834 107.097 13.6394 107.062 13.9043C107.044 14.1691 107 14.3986 106.929 14.5928H95.8061V11.9445H104.969L103.327 13.1892C103.486 12.3771 103.442 11.6532 103.195 11.0176C102.965 10.382 102.577 9.87879 102.03 9.50802C101.5 9.13726 100.856 8.95187 100.096 8.95187C99.3725 8.95187 98.7281 9.13726 98.1631 9.50802C97.5981 9.86113 97.1656 10.3908 96.8654 11.097C96.5829 11.7856 96.477 12.6242 96.5476 13.6129C96.477 14.4957 96.5918 15.2814 96.8919 15.97C97.2097 16.6409 97.6688 17.1617 98.269 17.5325C98.887 17.9032 99.5932 18.0886 100.388 18.0886C101.182 18.0886 101.853 17.9209 102.4 17.5854C102.965 17.25 103.407 16.7998 103.725 16.2348L106.532 17.6119C106.249 18.3005 105.808 18.9096 105.208 19.4393C104.607 19.9689 103.892 20.3838 103.063 20.684C102.25 20.9841 101.35 21.1342 100.361 21.1342Z" fill="white"/>
<path d="M57.8191 20.8164V1.08632H61.4208V9.69341H69.816V1.08632H73.4442V20.8164H69.816V12.8714H61.4208V20.8164H57.8191Z" fill="#EA4C25"/>
</svg>
